<?xml version="1.0" encoding="UTF-8" standalone="no"?>
<!DOCTYPE svg PUBLIC "-//W3C//DTD SVG 1.1//EN"
 "http://www.w3.org/Graphics/SVG/1.1/DTD/svg11.dtd">
<!-- Generated by graphviz version 2.43.0 (0)
 -->
<!-- Title: ChatBot.cpp Pages: 1 -->
<svg width="302pt" height="247pt"
 viewBox="0.00 0.00 301.50 247.00" xmlns="http://www.w3.org/2000/svg" xmlns:xlink="http://www.w3.org/1999/xlink">
<g id="graph0" class="graph" transform="scale(1 1) rotate(0) translate(4 243)">
<title>ChatBot.cpp</title>
<!-- Node1 -->
<g id="Node000001" class="node">
<title>Node1</title>
<g id="a_Node000001"><a xlink:title=" ">
<polygon fill="#999999" stroke="#666666" points="159,-239 83,-239 83,-220 159,-220 159,-239"/>
<text text-anchor="middle" x="121" y="-227" font-family="Helvetica,sans-Serif" font-size="10.00">ChatBot.cpp</text>
</a>
</g>
</g>
<!-- Node2 -->
<g id="Node000002" class="node">
<title>Node2</title>
<g id="a_Node000002"><a xlink:href="user_8h.html" target="_top" xlink:title=" ">
<polygon fill="white" stroke="#666666" points="46,-74 0,-74 0,-55 46,-55 46,-74"/>
<text text-anchor="middle" x="23" y="-62" font-family="Helvetica,sans-Serif" font-size="10.00">user.h</text>
</a>
</g>
</g>
<!-- Node1&#45;&gt;Node2 -->
<g id="edge1_Node000001_Node000002" class="edge">
<title>Node1&#45;&gt;Node2</title>
<g id="a_edge1_Node000001_Node000002"><a xlink:title=" ">
<path fill="none" stroke="#63b8ff" d="M115.73,-219.74C100.18,-193.87 54.25,-117.48 33.45,-82.88"/>
<polygon fill="#63b8ff" stroke="#63b8ff" points="36.45,-81.07 28.29,-74.31 30.45,-84.68 36.45,-81.07"/>
</a>
</g>
</g>
<!-- Node4 -->
<g id="Node000004" class="node">
<title>Node4</title>
<g id="a_Node000004"><a xlink:href="message_8h.html" target="_top" xlink:title=" ">
<polygon fill="white" stroke="#666666" points="162,-129 92,-129 92,-110 162,-110 162,-129"/>
<text text-anchor="middle" x="127" y="-117" font-family="Helvetica,sans-Serif" font-size="10.00">message.h</text>
</a>
</g>
</g>
<!-- Node1&#45;&gt;Node4 -->
<g id="edge3_Node000001_Node000004" class="edge">
<title>Node1&#45;&gt;Node4</title>
<g id="a_edge3_Node000001_Node000004"><a xlink:title=" ">
<path fill="none" stroke="#63b8ff" d="M118.67,-219.85C115.68,-207.61 111.2,-184.54 114,-165 115.25,-156.24 117.83,-146.79 120.36,-138.86"/>
<polygon fill="#63b8ff" stroke="#63b8ff" points="123.74,-139.8 123.66,-129.2 117.12,-137.54 123.74,-139.8"/>
</a>
</g>
</g>
<!-- Node8 -->
<g id="Node000008" class="node">
<title>Node8</title>
<g id="a_Node000008"><a xlink:href="chat_8h.html" target="_top" xlink:title=" ">
<polygon fill="white" stroke="#666666" points="170.5,-184 123.5,-184 123.5,-165 170.5,-165 170.5,-184"/>
<text text-anchor="middle" x="147" y="-172" font-family="Helvetica,sans-Serif" font-size="10.00">chat.h</text>
</a>
</g>
</g>
<!-- Node1&#45;&gt;Node8 -->
<g id="edge9_Node000001_Node000008" class="edge">
<title>Node1&#45;&gt;Node8</title>
<g id="a_edge9_Node000001_Node000008"><a xlink:title=" ">
<path fill="none" stroke="#63b8ff" d="M125.29,-219.75C128.81,-212.57 133.91,-202.18 138.28,-193.27"/>
<polygon fill="#63b8ff" stroke="#63b8ff" points="141.52,-194.61 142.79,-184.09 135.24,-191.53 141.52,-194.61"/>
</a>
</g>
</g>
<!-- Node9 -->
<g id="Node000009" class="node">
<title>Node9</title>
<g id="a_Node000009"><a xlink:title=" ">
<polygon fill="#e0e0e0" stroke="#999999" points="249,-184 189,-184 189,-165 249,-165 249,-184"/>
<text text-anchor="middle" x="219" y="-172" font-family="Helvetica,sans-Serif" font-size="10.00">iostream</text>
</a>
</g>
</g>
<!-- Node1&#45;&gt;Node9 -->
<g id="edge12_Node000001_Node000009" class="edge">
<title>Node1&#45;&gt;Node9</title>
<g id="a_edge12_Node000001_Node000009"><a xlink:title=" ">
<path fill="none" stroke="#63b8ff" d="M136.75,-219.98C152.23,-211.61 176.09,-198.7 194.14,-188.95"/>
<polygon fill="#63b8ff" stroke="#63b8ff" points="195.84,-192.01 202.97,-184.17 192.51,-185.85 195.84,-192.01"/>
</a>
</g>
</g>
<!-- Node3 -->
<g id="Node000003" class="node">
<title>Node3</title>
<g id="a_Node000003"><a xlink:title=" ">
<polygon fill="#e0e0e0" stroke="#999999" points="70,-19 26,-19 26,0 70,0 70,-19"/>
<text text-anchor="middle" x="48" y="-7" font-family="Helvetica,sans-Serif" font-size="10.00">string</text>
</a>
</g>
</g>
<!-- Node2&#45;&gt;Node3 -->
<g id="edge2_Node000002_Node000003" class="edge">
<title>Node2&#45;&gt;Node3</title>
<g id="a_edge2_Node000002_Node000003"><a xlink:title=" ">
<path fill="none" stroke="#63b8ff" d="M27.13,-54.75C30.51,-47.57 35.42,-37.18 39.62,-28.27"/>
<polygon fill="#63b8ff" stroke="#63b8ff" points="42.85,-29.63 43.95,-19.09 36.52,-26.64 42.85,-29.63"/>
</a>
</g>
</g>
<!-- Node4&#45;&gt;Node2 -->
<g id="edge4_Node000004_Node000002" class="edge">
<title>Node4&#45;&gt;Node2</title>
<g id="a_edge4_Node000004_Node000002"><a xlink:title=" ">
<path fill="none" stroke="#63b8ff" d="M110.29,-109.98C93.79,-101.57 68.3,-88.59 49.12,-78.81"/>
<polygon fill="#63b8ff" stroke="#63b8ff" points="50.51,-75.59 40.01,-74.17 47.33,-81.83 50.51,-75.59"/>
</a>
</g>
</g>
<!-- Node4&#45;&gt;Node3 -->
<g id="edge7_Node000004_Node000003" class="edge">
<title>Node4&#45;&gt;Node3</title>
<g id="a_edge7_Node000004_Node000003"><a xlink:title=" ">
<path fill="none" stroke="#63b8ff" d="M120.13,-109.71C113.2,-100.78 102.22,-86.53 93,-74 81.53,-58.41 68.81,-40.39 59.82,-27.54"/>
<polygon fill="#63b8ff" stroke="#63b8ff" points="62.6,-25.4 54.02,-19.2 56.86,-29.4 62.6,-25.4"/>
</a>
</g>
</g>
<!-- Node5 -->
<g id="Node000005" class="node">
<title>Node5</title>
<g id="a_Node000005"><a xlink:title=" ">
<polygon fill="#e0e0e0" stroke="#999999" points="152,-74 102,-74 102,-55 152,-55 152,-74"/>
<text text-anchor="middle" x="127" y="-62" font-family="Helvetica,sans-Serif" font-size="10.00">chrono</text>
</a>
</g>
</g>
<!-- Node4&#45;&gt;Node5 -->
<g id="edge5_Node000004_Node000005" class="edge">
<title>Node4&#45;&gt;Node5</title>
<g id="a_edge5_Node000004_Node000005"><a xlink:title=" ">
<path fill="none" stroke="#63b8ff" d="M127,-109.75C127,-102.8 127,-92.85 127,-84.13"/>
<polygon fill="#63b8ff" stroke="#63b8ff" points="130.5,-84.09 127,-74.09 123.5,-84.09 130.5,-84.09"/>
</a>
</g>
</g>
<!-- Node6 -->
<g id="Node000006" class="node">
<title>Node6</title>
<g id="a_Node000006"><a xlink:title=" ">
<polygon fill="#e0e0e0" stroke="#999999" points="228,-74 170,-74 170,-55 228,-55 228,-74"/>
<text text-anchor="middle" x="199" y="-62" font-family="Helvetica,sans-Serif" font-size="10.00">memory</text>
</a>
</g>
</g>
<!-- Node4&#45;&gt;Node6 -->
<g id="edge6_Node000004_Node000006" class="edge">
<title>Node4&#45;&gt;Node6</title>
<g id="a_edge6_Node000004_Node000006"><a xlink:title=" ">
<path fill="none" stroke="#63b8ff" d="M138.57,-109.98C149.42,-102 165.88,-89.88 178.88,-80.31"/>
<polygon fill="#63b8ff" stroke="#63b8ff" points="181.24,-82.92 187.22,-74.17 177.09,-77.28 181.24,-82.92"/>
</a>
</g>
</g>
<!-- Node7 -->
<g id="Node000007" class="node">
<title>Node7</title>
<g id="a_Node000007"><a xlink:title=" ">
<polygon fill="#e0e0e0" stroke="#999999" points="293.5,-74 246.5,-74 246.5,-55 293.5,-55 293.5,-74"/>
<text text-anchor="middle" x="270" y="-62" font-family="Helvetica,sans-Serif" font-size="10.00">vector</text>
</a>
</g>
</g>
<!-- Node4&#45;&gt;Node7 -->
<g id="edge8_Node000004_Node000007" class="edge">
<title>Node4&#45;&gt;Node7</title>
<g id="a_edge8_Node000004_Node000007"><a xlink:title=" ">
<path fill="none" stroke="#63b8ff" d="M149.98,-109.98C173.5,-101.27 210.29,-87.63 236.94,-77.75"/>
<polygon fill="#63b8ff" stroke="#63b8ff" points="238.45,-80.93 246.61,-74.17 236.01,-74.36 238.45,-80.93"/>
</a>
</g>
</g>
<!-- Node8&#45;&gt;Node4 -->
<g id="edge10_Node000008_Node000004" class="edge">
<title>Node8&#45;&gt;Node4</title>
<g id="a_edge10_Node000008_Node000004"><a xlink:title=" ">
<path fill="none" stroke="#63b8ff" d="M143.7,-164.75C141.02,-157.65 137.15,-147.4 133.81,-138.56"/>
<polygon fill="#63b8ff" stroke="#63b8ff" points="137.05,-137.21 130.24,-129.09 130.5,-139.68 137.05,-137.21"/>
</a>
</g>
</g>
<!-- Node8&#45;&gt;Node7 -->
<g id="edge11_Node000008_Node000007" class="edge">
<title>Node8&#45;&gt;Node7</title>
<g id="a_edge11_Node000008_Node000007"><a xlink:title=" ">
<path fill="none" stroke="#63b8ff" d="M157.07,-164.66C177.98,-146.3 226.37,-103.81 252.5,-80.87"/>
<polygon fill="#63b8ff" stroke="#63b8ff" points="254.93,-83.39 260.14,-74.16 250.32,-78.13 254.93,-83.39"/>
</a>
</g>
</g>
</g>
</svg>
