<?xml version="1.0" encoding="UTF-8" standalone="no"?>
<!DOCTYPE svg PUBLIC "-//W3C//DTD SVG 1.1//EN"
 "http://www.w3.org/Graphics/SVG/1.1/DTD/svg11.dtd">
<!-- Generated by graphviz version 2.43.0 (0)
 -->
<!-- Title: user.h Pages: 1 -->
<svg width="182pt" height="192pt"
 viewBox="0.00 0.00 181.50 192.00" xmlns="http://www.w3.org/2000/svg" xmlns:xlink="http://www.w3.org/1999/xlink">
<g id="graph0" class="graph" transform="scale(1 1) rotate(0) translate(4 188)">
<title>user.h</title>
<!-- Node1 -->
<g id="Node000001" class="node">
<title>Node1</title>
<g id="a_Node000001"><a xlink:title=" ">
<polygon fill="#999999" stroke="#666666" points="86,-184 40,-184 40,-165 86,-165 86,-184"/>
<text text-anchor="middle" x="63" y="-172" font-family="Helvetica,sans-Serif" font-size="10.00">user.h</text>
</a>
</g>
</g>
<!-- Node2 -->
<g id="Node000002" class="node">
<title>Node2</title>
<g id="a_Node000002"><a xlink:href="ChatBot_8cpp.html" target="_top" xlink:title=" ">
<polygon fill="white" stroke="#666666" points="76,-19 0,-19 0,0 76,0 76,-19"/>
<text text-anchor="middle" x="38" y="-7" font-family="Helvetica,sans-Serif" font-size="10.00">ChatBot.cpp</text>
</a>
</g>
</g>
<!-- Node1&#45;&gt;Node2 -->
<g id="edge1_Node000001_Node000002" class="edge">
<title>Node1&#45;&gt;Node2</title>
<g id="a_edge1_Node000001_Node000002"><a xlink:title=" ">
<path fill="none" stroke="#63b8ff" d="M42.3,-158.66C33.33,-150.95 23.81,-140.69 19,-129 3.08,-90.26 23.87,-39.3 33.54,-19.19"/>
<polygon fill="#63b8ff" stroke="#63b8ff" points="40.23,-161.49 50.22,-165 44.6,-156.02 40.23,-161.49"/>
</a>
</g>
</g>
<!-- Node3 -->
<g id="Node000003" class="node">
<title>Node3</title>
<g id="a_Node000003"><a xlink:href="message_8h.html" target="_top" xlink:title=" ">
<polygon fill="white" stroke="#666666" points="98,-129 28,-129 28,-110 98,-110 98,-129"/>
<text text-anchor="middle" x="63" y="-117" font-family="Helvetica,sans-Serif" font-size="10.00">message.h</text>
</a>
</g>
</g>
<!-- Node1&#45;&gt;Node3 -->
<g id="edge2_Node000001_Node000003" class="edge">
<title>Node1&#45;&gt;Node3</title>
<g id="a_edge2_Node000001_Node000003"><a xlink:title=" ">
<path fill="none" stroke="#63b8ff" d="M63,-154.66C63,-145.93 63,-135.99 63,-129.09"/>
<polygon fill="#63b8ff" stroke="#63b8ff" points="59.5,-154.75 63,-164.75 66.5,-154.75 59.5,-154.75"/>
</a>
</g>
</g>
<!-- Node5 -->
<g id="Node000005" class="node">
<title>Node5</title>
<g id="a_Node000005"><a xlink:href="user_8cpp.html" target="_top" xlink:title=" ">
<polygon fill="white" stroke="#666666" points="173.5,-129 116.5,-129 116.5,-110 173.5,-110 173.5,-129"/>
<text text-anchor="middle" x="145" y="-117" font-family="Helvetica,sans-Serif" font-size="10.00">user.cpp</text>
</a>
</g>
</g>
<!-- Node1&#45;&gt;Node5 -->
<g id="edge6_Node000001_Node000005" class="edge">
<title>Node1&#45;&gt;Node5</title>
<g id="a_edge6_Node000001_Node000005"><a xlink:title=" ">
<path fill="none" stroke="#63b8ff" d="M84.78,-159.42C99.66,-149.81 118.91,-137.37 131.59,-129.17"/>
<polygon fill="#63b8ff" stroke="#63b8ff" points="82.67,-156.62 76.17,-164.98 86.47,-162.5 82.67,-156.62"/>
</a>
</g>
</g>
<!-- Node3&#45;&gt;Node2 -->
<g id="edge3_Node000003_Node000002" class="edge">
<title>Node3&#45;&gt;Node2</title>
<g id="a_edge3_Node000003_Node000002"><a xlink:title=" ">
<path fill="none" stroke="#63b8ff" d="M58.67,-99.8C53.21,-76.2 44.04,-36.58 40,-19.16"/>
<polygon fill="#63b8ff" stroke="#63b8ff" points="55.29,-100.71 60.95,-109.66 62.11,-99.13 55.29,-100.71"/>
</a>
</g>
</g>
<!-- Node4 -->
<g id="Node000004" class="node">
<title>Node4</title>
<g id="a_Node000004"><a xlink:href="chat_8h.html" target="_top" xlink:title=" ">
<polygon fill="white" stroke="#666666" points="113.5,-74 66.5,-74 66.5,-55 113.5,-55 113.5,-74"/>
<text text-anchor="middle" x="90" y="-62" font-family="Helvetica,sans-Serif" font-size="10.00">chat.h</text>
</a>
</g>
</g>
<!-- Node3&#45;&gt;Node4 -->
<g id="edge4_Node000003_Node000004" class="edge">
<title>Node3&#45;&gt;Node4</title>
<g id="a_edge4_Node000003_Node000004"><a xlink:title=" ">
<path fill="none" stroke="#63b8ff" d="M72.01,-100.82C76.59,-91.82 81.95,-81.29 85.62,-74.09"/>
<polygon fill="#63b8ff" stroke="#63b8ff" points="68.88,-99.25 67.46,-109.75 75.12,-102.43 68.88,-99.25"/>
</a>
</g>
</g>
<!-- Node4&#45;&gt;Node2 -->
<g id="edge5_Node000004_Node000002" class="edge">
<title>Node4&#45;&gt;Node2</title>
<g id="a_edge5_Node000004_Node000002"><a xlink:title=" ">
<path fill="none" stroke="#63b8ff" d="M74.32,-47.52C65.16,-38.18 53.95,-26.75 46.43,-19.09"/>
<polygon fill="#63b8ff" stroke="#63b8ff" points="71.91,-50.06 81.41,-54.75 76.91,-45.16 71.91,-50.06"/>
</a>
</g>
</g>
</g>
</svg>
